<?xml version="1.0" encoding="UTF-8"?>
<svg xmlns="http://www.w3.org/2000/svg" id="Layer_1" data-name="Layer 1" viewBox="0 0 24 24" width="512" height="512"><path d="M24,3.5v13.961c0,2.013-1.354,3.796-3.294,4.335l-7.12,1.981c-1.038,.288-2.135,.289-3.173,0l-7.12-1.981c-1.939-.54-3.293-2.322-3.293-4.335V4.5c-.01-.649,1.01-.649,1,0v12.961c0,1.565,1.053,2.952,2.562,3.372l7.121,1.981c.862,.24,1.773,.24,2.636,0l7.12-1.982c1.509-.419,2.562-1.806,2.562-3.372V3.5c-.01-.649,1.01-.649,1,0ZM3,15.911V3.5c0-1.108,.507-2.127,1.392-2.794C5.277,.039,6.396-.17,7.461,.134l3.225,.922c.538,.153,.993,.48,1.313,.908,.32-.428,.776-.755,1.313-.908l3.225-.922c1.066-.304,2.185-.096,3.069,.572,.885,.667,1.392,1.686,1.392,2.794V15.911c0,1.554-1.044,2.938-2.538,3.366l-5.609,1.603c-.558,.159-1.148,.159-1.706,0l-5.608-1.603c-1.495-.427-2.539-1.812-2.539-3.366ZM12.5,3.46V19.938c.026-.006,5.687-1.623,5.687-1.623,1.067-.305,1.813-1.293,1.813-2.404V3.5c0-.792-.362-1.519-.995-1.996-.634-.479-1.44-.625-2.192-.408l-3.225,.922c-.641,.183-1.088,.776-1.088,1.442ZM4,15.911c0,1.11,.746,2.099,1.813,2.404,0,0,5.661,1.617,5.687,1.623V3.46c0-.666-.447-1.259-1.088-1.442l-3.225-.922c-1.529-.489-3.236,.793-3.187,2.404V15.911Z"/></svg>
