<?xml version="1.0" encoding="UTF-8"?>
<svg xmlns="http://www.w3.org/2000/svg" id="Layer_1" data-name="Layer 1" viewBox="0 0 24 24" width="512" height="512"><path d="m8.685,18H3.5c-2.29,0-3.5-1.21-3.5-3.5v-5.188C0,4.597,3.823.343,8.348.022c2.601-.181,5.161.769,7.007,2.615,1.852,1.852,2.807,4.416,2.622,7.036-.318,4.514-4.574,8.326-9.292,8.326Zm.3-17c-.188,0-.377.007-.566.021C4.397,1.305,1,5.102,1,9.312v5.188c0,1.729.771,2.5,2.5,2.5h5.185c4.213,0,8.012-3.387,8.295-7.396.165-2.331-.686-4.612-2.333-6.259-1.506-1.507-3.544-2.345-5.663-2.345Zm15.016,20.001v-4.726c0-2.698-1.424-5.354-3.717-6.93-.227-.156-.538-.098-.695.129-.156.228-.099.539.129.695,2.025,1.393,3.283,3.731,3.283,6.105v4.726c0,1.652-1.087,1.999-2,1.999h-4.722c-2.374,0-4.714-1.258-6.107-3.283-.157-.229-.468-.285-.695-.129s-.285.468-.129.695c1.578,2.293,4.233,3.717,6.932,3.717h4.722c1.851,0,3-1.149,3-2.999Z"/></svg>
