<?xml version="1.0" encoding="UTF-8"?>
<svg xmlns="http://www.w3.org/2000/svg" id="Layer_1" data-name="Layer 1" width="512" height="512" viewBox="0 0 24 24"><path d="M22.017,5.831L14.518,.771c-1.529-1.033-3.507-1.033-5.034,0L1.983,5.831c-1.242,.838-1.983,2.232-1.983,3.729v9.939c0,2.481,2.019,4.5,4.5,4.5h15c2.481,0,4.5-2.019,4.5-4.5V9.561c0-1.497-.741-2.892-1.983-3.729Zm-3.017,17.169H5V12.5c0-1.379,1.121-2.5,2.5-2.5h9c1.379,0,2.5,1.121,2.5,2.5v10.5Zm4-3.5c0,1.76-1.306,3.221-3,3.464V12.5c0-1.93-1.57-3.5-3.5-3.5H7.5c-1.93,0-3.5,1.57-3.5,3.5v10.464c-1.694-.243-3-1.704-3-3.464V9.561c0-1.165,.576-2.249,1.542-2.901L10.043,1.599c.594-.401,1.275-.603,1.957-.603s1.363,.201,1.958,.603l7.5,5.061c.966,.652,1.542,1.736,1.542,2.901v9.939Zm-9,0c0,.276-.224,.5-.5,.5h-3c-.276,0-.5-.224-.5-.5s.224-.5,.5-.5h3c.276,0,.5,.224,.5,.5Z"/></svg>
