<svg width="335" height="334" xmlns="http://www.w3.org/2000/svg" xmlns:xlink="http://www.w3.org/1999/xlink" xml:space="preserve" overflow="hidden"><g transform="translate(-2580 -669)"><g><path d="M2853.94 962.231C2784.02 1020.68 2679.97 1011.37 2621.52 941.456 2609.56 927.145 2600.11 910.908 2593.58 893.438L2646.76 873.546C2667.69 929.527 2730.05 957.935 2786.03 936.997 2797.49 932.711 2808.14 926.513 2817.52 918.667Z" fill="#DB3B96" fill-rule="evenodd" fill-opacity="1"/><path d="M2594.76 898.381C2562.04 813.334 2604.45 717.859 2689.5 685.132 2711.14 676.804 2734.29 673.131 2757.45 674.353L2754.44 731.357C2694.92 728.216 2644.13 773.919 2640.99 833.437 2640.19 848.582 2642.59 863.726 2648.04 877.88Z" fill="#FFAA1B" fill-rule="evenodd" fill-opacity="1"/><path d="M2756.65 673.056C2847.61 678.585 2916.86 756.804 2911.33 847.763 2908.59 892.837 2887.5 934.818 2852.97 963.919L2815.67 919.667C2860.91 881.538 2866.68 813.954 2828.55 768.714 2809.66 746.295 2782.4 732.6 2753.14 730.821Z" fill="#68DAD6" fill-rule="evenodd" fill-opacity="1"/></g></g></svg>