<svg width="400" height="400" viewBox="0 0 400 400" fill="none" xmlns="http://www.w3.org/2000/svg">
<path d="M123.578 15.1768C92.1593 28.1679 64.5713 48.9539 43.4194 75.5712C22.2676 102.189 8.2503 133.759 2.69146 167.299C-2.86738 200.84 0.215786 235.244 11.6497 267.262C23.0837 299.28 42.491 327.855 68.0384 350.287L111.348 300.963C94.1854 285.893 81.1476 266.696 73.4663 245.187C65.785 223.677 63.7137 200.564 67.4481 178.032C71.1825 155.499 80.5994 134.29 94.8092 116.409C109.019 98.5272 127.553 84.5632 148.659 75.8358L123.578 15.1768Z" fill="url(#paint0_linear_1396_529)"/>
<path d="M385.659 274.37C400.368 237.65 403.858 197.393 395.687 158.69C387.517 119.987 368.053 84.5756 339.757 56.9341C311.462 29.2927 275.605 10.6627 236.721 3.39997C197.837 -3.86275 157.673 0.568018 121.307 16.132L147.134 76.4775C171.565 66.0216 198.547 63.045 224.669 67.9241C250.791 72.8032 274.88 85.3188 293.889 103.888C312.898 122.458 325.974 146.247 331.463 172.248C336.952 198.249 334.607 225.294 324.725 249.962L385.659 274.37Z" fill="url(#paint1_linear_1396_529)"/>
<path d="M58.5786 341.421C82.619 365.462 112.391 382.977 145.082 392.312C177.774 401.648 212.305 402.496 245.416 394.775C278.526 387.055 309.121 371.022 334.312 348.19C359.503 325.358 378.458 296.481 389.386 264.287L327.23 243.188C319.888 264.816 307.154 284.215 290.231 299.554C273.308 314.892 252.754 325.664 230.51 330.85C208.267 336.037 185.068 335.467 163.106 329.195C141.144 322.924 121.143 311.157 104.993 295.007L58.5786 341.421Z" fill="url(#paint2_linear_1396_529)"/>
<defs>
<linearGradient id="paint0_linear_1396_529" x1="200" y1="0" x2="200" y2="400" gradientUnits="userSpaceOnUse">
<stop stop-color="#FFAA1A"/>
<stop offset="1" stop-color="#FFB70E"/>
</linearGradient>
<linearGradient id="paint1_linear_1396_529" x1="200" y1="0" x2="200" y2="400" gradientUnits="userSpaceOnUse">
<stop stop-color="#79D9FC"/>
<stop offset="1" stop-color="#68D9D6"/>
</linearGradient>
<linearGradient id="paint2_linear_1396_529" x1="200" y1="0" x2="200" y2="400" gradientUnits="userSpaceOnUse">
<stop stop-color="#D6369A"/>
<stop offset="1" stop-color="#E34D8C"/>
</linearGradient>
</defs>
</svg>
